#N canvas 224 224 1920 976 12;
#X obj 173 324 dac~;
#X obj 179 115 osc~ 440;
#X floatatom 179 79 5 0 0 0 - - - 0;
#X obj 179 211 clip~ -1 1;
#X obj 179 170 *~;
#X obj 665 107 phasor~ 220;
#X floatatom 664 51 5 0 0 0 - - - 0;
#X obj 757 20 vsl 15 128 0 1 0 0 empty empty empty 0 -9 0 10 #fcfcfc
#000000 #000000 0 1;
#X obj 659 162 *~ 0;
#X text 612 8 Пилообразная волна;
#X obj 925 38 phasor~ 220;
#X floatatom 925 -18 5 0 0 0 - - - 0;
#X obj 1017 -49 vsl 15 128 0 1 0 0 empty empty empty 0 -9 0 10 #fcfcfc
#000000 #000000 0 1;
#X obj 931 167 *~ 0;
#X obj 925 111 expr~ $v1 > 0.5;
#X text 794 -21 Квадратная волна;
#N canvas 0 50 450 250 (subpatch) 0;
#X array scope_amp_mod 100 float 3;
#A 0 0 0 0 0 0 0 0 0 0 0 0 0 0 0 0 0 0 0 0 0 0 0 0 0 0 0 0 0 0 0 0
0 0 0 0 0 0 0 0 0 0 0 0 0 0 0 0 0 0 0 0 0 0 0 0 0 0 0 0 0 0 0 0 0 0
0 0 0 0 0 0 0 0 0 0 0 0 0 0 0 0 0 0 0 0 0 0 0 0 0 0 0 0 0 0 0 0 0 0
0;
#X coords 0 1 100 -1 200 140 1 0 0;
#X restore 694 273 graph;
#X obj 493 329 tgl 15 0 empty empty empty 17 7 0 10 #fcfcfc #000000
#000000 0 1;
#X obj 493 353 metro 100;
#X obj 493 387 tabwrite~ scope_amp_mod;
#X text 210 231;
#X text 216 323;
#X text 511 315;
#X text 427 -151 Справка по управлению звуком
\, отображению формы волны и редактированию
патча см. sound_waves.pd;
#X floatatom 269 -12 5 0 0 0 - - - 0;
#X obj 329 -70 vsl 15 128 0 1 0 0 empty empty empty 0 -9 0 10 #fcfcfc
#000000 #000000 0 1;
#X obj 269 67 *~;
#X obj 269 24 osc~ 1;
#X obj 269 111 pow~ 2;
#X text 41 101 Управляемый сигнал звуковой
частоты;
#X text 136 -81 Управляющий сигнал низкой частоты
(LFO - low frequency oscillator);
#X text 218 157 LFO модулирует амплитуду можно
создавать ритмический рисунок;
#X text 350 -12 Уровень модуляции;
#X connect 1 0 4 0;
#X connect 2 0 1 0;
#X connect 3 0 0 0;
#X connect 3 0 0 1;
#X connect 4 0 3 0;
#X connect 4 0 19 0;
#X connect 5 0 8 0;
#X connect 6 0 5 0;
#X connect 7 0 8 1;
#X connect 8 0 3 0;
#X connect 8 0 19 0;
#X connect 10 0 14 0;
#X connect 11 0 10 0;
#X connect 12 0 13 1;
#X connect 13 0 3 0;
#X connect 13 0 19 0;
#X connect 14 0 13 0;
#X connect 17 0 18 0;
#X connect 18 0 19 0;
#X connect 24 0 27 0;
#X connect 25 0 26 1;
#X connect 26 0 28 0;
#X connect 27 0 26 0;
#X connect 28 0 4 1;
