#N canvas 827 239 527 327 12;
#X obj 231 12 notein;
#X obj 338 382 clip~ -1 1;
#X obj 338 442 dac~;
#X obj 214 83 poly 2 1;
#X obj 214 176 pack f f f;
#X obj 214 220 route 1 2;
#X obj 217 279 unpack f f;
#X obj 347 279 unpack f f;
#X obj 336 335 square4midiin.v1;
#X text 318 219 голос с номером 1 идет в левый выход \, голос с номерм 2 - в выход правее;
#X text 318 175 упаковка в список "номер голоса - мида-нота - velocity";
#X text 324 11 принимает миди сигналы: левый выход - номер ноты \, средний - velocity \, правый - номер канала;
#X text 318 83 присваивает номер голосу (в данном случае максимальная полифония = 2 голоса \, это задается в параметрах объекта poly);
#X text 466 278 распаковка списка "миди-нота - velocity" в 2 числа;
#X text 475 447 вместо этого суб-патча можно поставить sin4midi.v2;
#X text 475 334 суб-патч (откройте square4midiin.v1 в отдельном окне);
#X text 475 366 чтобы PD мог найти суб-патч \, он должен находиться в той же директории \, что и основной патч;
#X obj 217 335 square4midiin.v1;
#X connect 0 0 3 0;
#X connect 0 1 3 1;
#X connect 1 0 2 0;
#X connect 1 0 2 1;
#X connect 3 0 4 0;
#X connect 3 1 4 1;
#X connect 3 2 4 2;
#X connect 4 0 5 0;
#X connect 5 0 6 0;
#X connect 5 1 7 0;
#X connect 6 0 17 0;
#X connect 6 1 17 1;
#X connect 7 0 8 0;
#X connect 7 1 8 1;
#X connect 8 1 1 0;
#X connect 17 1 1 0;
