#N canvas 827 239 527 327 12;
#X obj 362 221 inlet;
#X text 354 182 midi note;
#X obj 445 221 inlet;
#X text 437 182 velocity;
#X obj 362 506 outlet~;
#X obj 362 347 osc~;
#X obj 362 462 *~;
#X obj 562 415 vline~;
#X msg 628 357 0 100;
#X text 555 301 attack;
#X text 628 301 release;
#X obj 362 266 stripnote;
#X obj 362 302 mtof;
#X obj 421 302 / 127;
#X obj 592 266 sel 0;
#X msg 562 357 \$1 100;
#X text 518 220 inlet - вход для управляющих данных;
#X text 437 505 outlet~ - выход для звукового сигнала;
#X connect 0 0 11 0;
#X connect 2 0 11 1;
#X connect 2 0 14 0;
#X connect 5 0 6 0;
#X connect 6 0 4 0;
#X connect 7 0 6 1;
#X connect 8 0 7 0;
#X connect 11 0 12 0;
#X connect 11 1 13 0;
#X connect 12 0 5 0;
#X connect 13 0 15 0;
#X connect 14 0 8 0;
#X connect 15 0 7 0;
