#N canvas 64 64 1920 976 12;
#X obj 173 324 dac~;
#X obj 179 115 osc~ 440;
#X floatatom 179 79 5 0 0 0 - - - 0;
#X obj 179 211 clip~ -1 1;
#X obj 276 30 vsl 15 128 0 1 0 0 empty empty empty 0 -9 0 10 #fcfcfc
#000000 #000000 0 1;
#X obj 179 170 *~;
#X text 174 10 Синус;
#X text 216 323 Выходы звуковой карты;
#X text 210 231 Ограничение сигнала по 0 Дб Звуковые
сигналы надо подключать к звуковой карте
только через clip~ -1 1;
#X obj 445 110 phasor~ 220;
#X floatatom 444 54 5 0 0 0 - - - 0;
#X obj 537 23 vsl 15 128 0 1 0 0 empty empty empty 0 -9 0 10 #fcfcfc
#000000 #000000 0 1;
#X obj 439 165 *~ 0;
#X text 392 11 Пилообразная волна;
#X obj 705 41 phasor~ 220;
#X floatatom 705 -15 5 0 0 0 - - - 0;
#X obj 797 -46 vsl 15 128 0 1 0 0 empty empty empty 0 -9 0 10 #fcfcfc
#000000 #000000 0 1;
#X obj 711 170 *~ 0;
#X obj 705 114 expr~ $v1 > 0.5;
#X text 574 -18 Квадратная волна;
#X text 118 78 Частота;
#X text 293 78 Амплитуда;
#X text 823 108 выход = 1 \, если вход > 0.5 выход
= 0 \, если вход < 0.5;
#N canvas 0 50 450 250 (subpatch) 0;
#X array scope_sound_waves 100 float 3;
#A 0 0 0 0 0 0 0 0 0 0 0 0 0 0 0 0 0 0 0 0 0 0 0 0 0 0 0 0 0 0 0 0
0 0 0 0 0 0 0 0 0 0 0 0 0 0 0 0 0 0 0 0 0 0 0 0 0 0 0 0 0 0 0 0 0 0
0 0 0 0 0 0 0 0 0 0 0 0 0 0 0 0 0 0 0 0 0 0 0 0 0 0 0 0 0 0 0 0 0 0
0;
#X coords 0 1 100 -1 200 140 1 0 0;
#X restore 936 202 graph;
#X obj 735 258 tgl 15 0 empty empty empty 17 7 0 10 #fcfcfc #000000
#000000 0 1;
#X obj 735 282 metro 100;
#X text 933 170 Отображение звуковых волн;
#X text 753 244 Переключатель отображения;
#X text 134 -124 Для включение звука: Главное
меню -> Media -> DSP On Проверить звук: Главное
меню -> Media -> Test Audio ... Если звука нет \, надо
проверить Главное меню -> Media -> Audio Settings
-> Output Device;
#X text 569 -123 Чтобы управлять параметрами
\, надо отключить режим редактирования
Главное меню -> Edit -> Снять галочку с Edit
Mode Чтобы редактировать патч \, надо ее
обратно установить.;
#X obj 735 316 tabwrite~ scope_sound_waves;
#X connect 1 0 5 0;
#X connect 2 0 1 0;
#X connect 3 0 0 0;
#X connect 3 0 0 1;
#X connect 4 0 5 1;
#X connect 5 0 3 0;
#X connect 5 0 30 0;
#X connect 9 0 12 0;
#X connect 10 0 9 0;
#X connect 11 0 12 1;
#X connect 12 0 3 0;
#X connect 12 0 30 0;
#X connect 14 0 18 0;
#X connect 15 0 14 0;
#X connect 16 0 17 1;
#X connect 17 0 3 0;
#X connect 17 0 30 0;
#X connect 18 0 17 0;
#X connect 24 0 25 0;
#X connect 25 0 30 0;
