#N canvas 827 239 527 327 12;
#X obj 681 261 phasor~ 440;
#N canvas 0 0 450 250 (subpatch) 0;
#X array \$0-scope_phasor 100 float 2;
#X coords 0 1 100 -1 200 140 1;
#X restore 83 152 graph;
#X obj 590 485 metro 100;
#X obj 590 434 tgl 25 0 empty empty empty 17 7 0 10 #e4e4e4 #4d4d4d #373737 0 1;
#X obj 681 323 expr~ if ($v1 > 0.5 \, -1 \, 1);
#X obj 204 427 spectrograph~;
#X obj 204 593 spectrograph~;
#X obj 716 141 inlet;
#X text 708 102 midi note;
#X obj 799 141 inlet;
#X text 791 102 velocity;
#X obj 716 426 outlet~;
#X obj 716 382 *~;
#X obj 916 335 vline~;
#X msg 982 277 0 100;
#X text 909 221 attack;
#X text 982 221 release;
#X obj 716 186 stripnote;
#X obj 716 222 mtof;
#X obj 775 222 / 127;
#X obj 946 186 sel 0;
#X msg 916 277 \$1 100;
#X obj 976 335 vline~;
#X obj 965 391 *~;
#X obj 965 434 outlet~;
#X obj 590 529 tabwrite~ \$0-scope_phasor;
#X connect 0 0 4 0;
#X connect 0 0 6 0;
#X connect 0 0 23 0;
#X connect 2 0 25 0;
#X connect 3 0 2 0;
#X connect 4 0 5 0;
#X connect 4 0 12 0;
#X connect 7 0 17 0;
#X connect 9 0 17 1;
#X connect 9 0 20 0;
#X connect 12 0 11 0;
#X connect 12 0 25 0;
#X connect 13 0 12 1;
#X connect 14 0 13 0;
#X connect 14 0 22 0;
#X connect 17 0 18 0;
#X connect 17 1 19 0;
#X connect 18 0 0 0;
#X connect 19 0 21 0;
#X connect 20 0 14 0;
#X connect 21 0 13 0;
#X connect 21 0 22 0;
#X connect 22 0 23 1;
#X connect 23 0 24 0;
